<?xml version="1.0" encoding="UTF-8" standalone="no"?>
<!-- Created with Inkscape (http://www.inkscape.org/) -->

<svg
   xmlns:dc="http://purl.org/dc/elements/1.1/"
   xmlns:cc="http://creativecommons.org/ns#"
   xmlns:rdf="http://www.w3.org/1999/02/22-rdf-syntax-ns#"
   xmlns:svg="http://www.w3.org/2000/svg"
   xmlns="http://www.w3.org/2000/svg"
   xmlns:sodipodi="http://sodipodi.sourceforge.net/DTD/sodipodi-0.dtd"
   xmlns:inkscape="http://www.inkscape.org/namespaces/inkscape"
   width="320"
   height="210"
   id="svg3795"
   version="1.1"
   inkscape:version="0.48.4 r9939"
   sodipodi:docname="logo - normal distribution.svg">
  <defs
     id="defs3797">
    <path
       sodipodi:nodetypes="csc"
       inkscape:connector-curvature="0"
       id="path2985"
       d="m 199.54615,469.50504 c 119.20114,0 98.38725,-188.20591 163.28923,-185.71429 60.85425,2.33623 34.10427,185.71429 148.59319,185.71429"
       style="fill:none;stroke:#ffffff;stroke-width:1;stroke-linecap:butt;stroke-linejoin:miter;stroke-miterlimit:4;stroke-opacity:1;stroke-dasharray:none" />
  </defs>
  <sodipodi:namedview
     id="base"
     pagecolor="#ffffff"
     bordercolor="#666666"
     borderopacity="1.0"
     inkscape:pageopacity="0.0"
     inkscape:pageshadow="2"
     inkscape:zoom="1.4"
     inkscape:cx="162.85714"
     inkscape:cy="109.99765"
     inkscape:document-units="px"
     inkscape:current-layer="layer1"
     showgrid="false"
     inkscape:window-width="1117"
     inkscape:window-height="835"
     inkscape:window-x="25"
     inkscape:window-y="25"
     inkscape:window-maximized="0" />
  <metadata
     id="metadata3800">
    <rdf:RDF>
      <cc:Work
         rdf:about="">
        <dc:format>image/svg+xml</dc:format>
        <dc:type
           rdf:resource="http://purl.org/dc/dcmitype/StillImage" />
        <dc:title />
      </cc:Work>
    </rdf:RDF>
  </metadata>
  <g
     inkscape:label="Layer 1"
     inkscape:groupmode="layer"
     id="layer1"
     transform="translate(0,-842.36218)">
    <g
       id="g3011">
      <path
         sodipodi:nodetypes="csc"
         inkscape:connector-curvature="0"
         id="path3790"
         d="m 4.05879,1047.1765 c 119.20114,0 98.38725,-188.20588 163.28923,-185.71426 60.85425,2.33623 34.10427,185.71426 148.59319,185.71426"
         style="fill:none;stroke:#ffffff;stroke-width:1;stroke-linecap:butt;stroke-linejoin:miter;stroke-miterlimit:4;stroke-opacity:1;stroke-dasharray:none" />
      <g
         transform="translate(-195.48736,563.67149)"
         style="font-size:40px;font-style:normal;font-variant:normal;font-weight:normal;font-stretch:normal;line-height:125%;letter-spacing:0px;word-spacing:0px;fill:#ffffff;fill-opacity:1;stroke:none;font-family:Arial;-inkscape-font-specification:Arial"
         id="text2987">
        <path
           d="m 262.75451,444.56238 -22.16234,-18.12922 2.46092,-3.00839 26.92248,2.59326 -17.40031,-14.23379 2.30016,-2.81186 22.16234,18.12921 -2.46092,3.0084 -26.9376,-2.60563 17.41543,14.24615 z"
           style="fill:#ffffff"
           id="path3018" />
        <path
           d="m 270.29544,417.96715 c -3.35448,-1.8713 -5.31892,-4.18977 -5.89332,-6.95541 -0.47273,-2.30636 -0.0843,-4.5796 1.16536,-6.81974 1.38922,-2.49026 3.34057,-4.07055 5.85405,-4.74089 2.5135,-0.67028 5.2087,-0.203 8.0856,1.40186 2.33108,1.30042 3.96962,2.67296 4.91562,4.11761 0.94598,1.4447 1.41586,3.04125 1.40964,4.78967 -0.006,1.74844 -0.45021,3.41296 -1.33194,4.99353 -1.41458,2.53578 -3.37102,4.13188 -5.86931,4.7883 -2.49829,0.65643 -5.27686,0.13145 -8.3357,-1.57493 z m 1.76029,-3.1555 c 2.31972,1.29407 4.33895,1.75701 6.05768,1.38882 1.71874,-0.36817 3.00628,-1.31981 3.86265,-2.85492 0.85001,-1.52373 0.97737,-3.11512 0.38208,-4.7742 -0.5953,-1.65904 -2.08123,-3.15146 -4.4578,-4.47725 -2.24011,-1.24963 -4.22112,-1.68752 -5.94304,-1.31368 -1.7219,0.37388 -3.00469,1.31699 -3.84837,2.82934 -0.85635,1.53512 -0.99257,3.12903 -0.40866,4.78173 0.58394,1.65273 2.03576,3.12612 4.35546,4.42016 z"
           style="fill:#ffffff"
           id="path3020" />
        <path
           d="m 290.41524,402.25166 -18.86426,-8.62427 1.31557,-2.8776 2.85983,1.30745 c -1.00247,-1.34595 -1.57475,-2.42724 -1.71685,-3.24386 -0.14207,-0.81658 -0.0426,-1.5979 0.29848,-2.34397 0.49268,-1.0776 1.33688,-2.01598 2.5326,-2.81514 l 2.46293,2.45748 c -0.81914,0.57044 -1.40738,1.24644 -1.7647,2.028 -0.31941,0.69869 -0.39615,1.42241 -0.23022,2.17116 0.16595,0.74878 0.5678,1.41211 1.20556,1.99001 0.97442,0.875 2.13662,1.62109 3.4866,2.23826 l 9.8762,4.51515 z"
           style="fill:#ffffff"
           id="path3022" />
        <path
           d="m 295.9975,390.06356 -19.34023,-7.49625 1.13644,-2.932 2.71346,1.05174 c -0.71168,-0.97407 -1.16058,-2.07672 -1.34671,-3.30794 -0.18609,-1.23119 -0.0297,-2.49025 0.46905,-3.77719 0.5553,-1.43259 1.30802,-2.49192 2.25819,-3.17798 0.95019,-0.68603 2.03242,-1.01018 3.24667,-0.97246 -1.66525,-2.40498 -2.02259,-4.83369 -1.07205,-7.28616 0.74352,-1.9182 1.84643,-3.18743 3.30872,-3.80767 1.46231,-0.62018 3.29827,-0.50206 5.50789,0.35435 l 13.27592,5.14573 -1.26349,3.25979 -12.18326,-4.72221 c -1.31119,-0.50819 -2.29631,-0.76783 -2.95535,-0.77892 -0.65903,-0.011 -1.27283,0.19444 -1.84138,0.61642 -0.56854,0.42204 -0.99869,1.00941 -1.29045,1.7621 -0.52704,1.3598 -0.51243,2.66418 0.0438,3.91314 0.55626,1.24902 1.82994,2.25939 3.82101,3.03111 l 11.23628,4.35517 -1.27055,3.278 -12.56569,-4.87045 c -1.45688,-0.56467 -2.65308,-0.72109 -3.58858,-0.46926 -0.93549,0.25187 -1.63853,0.98483 -2.10911,2.19889 -0.35763,0.92271 -0.44539,1.86972 -0.26329,2.84101 0.18212,0.97132 0.67236,1.81419 1.47072,2.5286 0.79838,0.71444 2.07777,1.41281 3.83817,2.09514 l 10.03434,3.88929 z"
           style="fill:#ffffff"
           id="path3024" />
        <path
           d="m 309.96531,345.23817 c 0.59593,1.60165 0.90255,3.04629 0.91986,4.33392 0.0173,1.28766 -0.20956,2.58015 -0.68061,3.87748 -0.77767,2.14184 -1.89859,3.59801 -3.36275,4.36853 -1.46416,0.77052 -3.01013,0.86027 -4.63793,0.26923 -0.95464,-0.34661 -1.74779,-0.88048 -2.37946,-1.6016 -0.63165,-0.72111 -1.05839,-1.52019 -1.28019,-2.39725 -0.2218,-0.87705 -0.29511,-1.80062 -0.21994,-2.77072 0.0642,-0.71087 0.25446,-1.74999 0.57084,-3.11735 0.65055,-2.78363 0.98438,-4.88576 1.00148,-6.30638 -0.44839,-0.17664 -0.73378,-0.28719 -0.85618,-0.33165 -1.34629,-0.4888 -2.40813,-0.5211 -3.18554,-0.0969 -1.05319,0.57344 -1.88198,1.69241 -2.48635,3.3569 -0.56436,1.55437 -0.70865,2.80066 -0.43288,3.73886 0.2758,0.93822 1.04076,1.83587 2.29489,2.69295 l -1.61379,3.07113 c -1.27634,-0.79588 -2.21762,-1.68483 -2.82384,-2.66683 -0.60618,-0.98199 -0.90769,-2.19274 -0.90451,-3.63225 0.003,-1.43949 0.30922,-2.99762 0.91801,-4.67438 0.60438,-1.6645 1.29125,-2.94581 2.06061,-3.84394 0.76939,-0.8981 1.53975,-1.48417 2.31109,-1.75823 0.77136,-0.27401 1.64543,-0.34452 2.62221,-0.21152 0.603,0.0943 1.63883,0.40805 3.10751,0.94129 l 4.40606,1.59979 c 3.072,1.11542 5.0405,1.75051 5.9055,1.90526 0.865,0.15478 1.74633,0.15964 2.64401,0.0146 l -1.25316,3.45141 c -0.80982,0.0938 -1.69147,0.0231 -2.64494,-0.21231 z m -7.48014,-2.40426 c 0.0541,1.3772 -0.18305,3.32743 -0.71135,5.85069 -0.29744,1.42965 -0.42598,2.4704 -0.38562,3.12226 0.0404,0.65189 0.2406,1.21635 0.6007,1.69341 0.36012,0.47707 0.82779,0.82004 1.40302,1.02889 0.88121,0.31996 1.73665,0.25308 2.56631,-0.20065 0.82967,-0.45371 1.4778,-1.32313 1.9444,-2.60823 0.46216,-1.27285 0.59478,-2.50606 0.39786,-3.69963 -0.19693,-1.19355 -0.6944,-2.1984 -1.49242,-3.01456 -0.61771,-0.62599 -1.65478,-1.2034 -3.11123,-1.73224 z"
           style="fill:#ffffff"
           id="path3026" />
        <path
           d="m 315.36554,338.00328 -26.74615,-10.22163 1.25505,-3.28397 26.74614,10.22162 z"
           style="fill:#ffffff"
           id="path3028" />
        <path
           d="m 394.32503,310.29286 26.56108,-10.69332 3.68358,9.14963 c 0.83151,2.06545 1.33928,3.69278 1.52331,4.88199 0.2624,1.66293 0.15102,3.21669 -0.33414,4.66127 -0.61966,1.87768 -1.71067,3.53457 -3.27303,4.97069 -1.56242,1.43608 -3.52733,2.63069 -5.89473,3.58382 -2.01716,0.81207 -3.89964,1.29623 -5.64742,1.45248 -1.74782,0.15621 -3.28036,0.0714 -4.59763,-0.25449 -1.31729,-0.32591 -2.44512,-0.80879 -3.38348,-1.44863 -0.93838,-0.63988 -1.80776,-1.51806 -2.60816,-2.63454 -0.80041,-1.11651 -1.52399,-2.47799 -2.17074,-4.08444 z m 4.5495,2.25301 2.28309,5.67095 c 0.7051,1.7514 1.42131,3.0597 2.14862,3.92491 0.7273,0.86519 1.50602,1.47457 2.33617,1.82817 1.16895,0.49788 2.55062,0.69608 4.14502,0.59461 1.59437,-0.1015 3.3941,-0.55586 5.39918,-1.36307 2.77808,-1.11846 4.72942,-2.43393 5.85403,-3.94641 1.12455,-1.51251 1.6779,-3.02313 1.66005,-4.53186 -0.017,-1.08803 -0.44607,-2.67685 -1.28731,-4.76646 l -2.24662,-5.58036 z"
           style="fill:#ffffff"
           id="path3030" />
        <path
           d="m 427.68438,329.38899 3.84659,-1.24473 1.08238,3.34485 -3.84659,1.24474 z m -23.39542,7.57064 19.73466,-6.38604 1.08238,3.34486 -19.73466,6.38604 z"
           style="fill:#ffffff"
           id="path3032" />
        <path
           d="m 412.48821,342.25229 1.54828,3.16044 c -1.27359,0.59768 -2.13337,1.43213 -2.57935,2.50333 -0.446,1.0712 -0.43272,2.37193 0.0398,3.9022 0.47637,1.5427 1.14395,2.59028 2.00274,3.14275 0.85878,0.55245 1.71117,0.69807 2.55718,0.43684 0.7589,-0.23436 1.25427,-0.74845 1.48611,-1.54229 0.15643,-0.55253 0.18245,-1.81429 0.078,-3.78528 -0.13861,-2.65545 -0.12781,-4.52916 0.0324,-5.62113 0.16019,-1.09197 0.56565,-2.00757 1.21637,-2.74679 0.65069,-0.73922 1.46125,-1.25865 2.43168,-1.55831 0.88331,-0.27277 1.76374,-0.32319 2.64131,-0.15128 0.87753,0.17191 1.67269,0.52939 2.3855,1.07242 0.54701,0.40344 1.09353,1.01485 1.63956,1.83424 0.54599,0.81938 0.97843,1.74539 1.29732,2.77801 0.4802,1.55514 0.67789,2.98971 0.59307,4.30371 -0.0849,1.31399 -0.4234,2.36904 -1.01563,3.16517 -0.59228,0.79611 -1.49647,1.49777 -2.71258,2.10499 l -1.46211,-3.14617 c 0.97406,-0.46433 1.63679,-1.14253 1.98821,-2.03461 0.35137,-0.8921 0.32538,-1.9913 -0.078,-3.29762 -0.4764,-1.54271 -1.07143,-2.565 -1.78512,-3.06687 -0.71372,-0.50187 -1.4127,-0.64716 -2.09695,-0.43586 -0.43545,0.13446 -0.78509,0.39233 -1.04891,0.7736 -0.27629,0.38512 -0.44234,0.90654 -0.49814,1.56427 -0.0207,0.37433 -0.001,1.45176 0.0578,3.23231 0.0993,2.57218 0.0918,4.39036 -0.0225,5.45454 -0.1143,1.06415 -0.47452,1.98281 -1.08066,2.75599 -0.60617,0.77314 -1.48155,1.33644 -2.62612,1.6899 -1.11972,0.34574 -2.27495,0.34475 -3.46571,-0.003 -1.19077,-0.34776 -2.24692,-1.05391 -3.16844,-2.11846 -0.92153,-1.06457 -1.6224,-2.37442 -2.10261,-3.92956 -0.79525,-2.57533 -0.86631,-4.70312 -0.2132,-6.38337 0.65311,-1.68027 1.97332,-3.03164 3.96063,-4.05413 z"
           style="fill:#ffffff"
           id="path3034" />
        <path
           d="m 418.17129,370.92468 -2.81088,1.41449 c -0.49512,-0.88179 -0.85966,-1.69538 -1.09362,-2.44077 -0.38213,-1.21748 -0.48591,-2.22209 -0.31135,-3.01382 0.17455,-0.79174 0.53263,-1.42272 1.07422,-1.89294 0.54159,-0.47023 1.81867,-1.02118 3.83124,-1.65287 l 11.38593,-3.5737 -0.77206,-2.45981 2.60888,-0.81885 0.77206,2.45981 4.90098,-1.53828 3.05953,2.70397 -6.91355,2.16995 1.05866,3.37292 -2.60888,0.81885 -1.05866,-3.37291 -11.57228,3.63219 c -0.95659,0.30024 -1.55302,0.55227 -1.78929,0.75608 -0.23627,0.2038 -0.39324,0.46459 -0.4709,0.78239 -0.0777,0.31779 -0.0385,0.72515 0.11745,1.22208 0.11698,0.37269 0.31448,0.84977 0.59252,1.43122 z"
           style="fill:#ffffff"
           id="path3036" />
        <path
           d="m 416.20134,375.08499 19.67433,-6.56955 1.00214,3.00117 -2.98265,0.99595 c 1.65128,0.29971 2.80749,0.69954 3.46864,1.19948 0.6611,0.49993 1.12157,1.13894 1.38141,1.91702 0.37526,1.12389 0.39857,2.38591 0.0699,3.78605 l -3.47733,-0.11553 c 0.20946,-0.97597 0.17811,-1.87152 -0.0941,-2.68665 -0.24334,-0.72868 -0.68113,-1.31006 -1.31338,-1.74413 -0.63229,-0.43407 -1.37871,-0.6447 -2.23925,-0.6319 -1.30938,0.0254 -2.66804,0.27316 -4.07599,0.74329 l -10.30031,3.43943 z"
           style="fill:#ffffff"
           id="path3038" />
        <path
           d="m 443.64325,379.38797 3.79992,-1.38064 1.20056,3.30428 -3.79992,1.38064 z m -23.11162,8.39723 19.49526,-7.08329 1.20056,3.30428 -19.49526,7.0833 z"
           style="fill:#ffffff"
           id="path3040" />
        <path
           d="m 424.7652,399.15326 -1.28608,-2.99747 26.31308,-11.28979 1.3862,3.2308 -9.38727,4.02767 c 2.29639,0.62994 3.89895,2.0039 4.80771,4.12187 0.50311,1.17266 0.74297,2.3839 0.71957,3.63372 -0.0234,1.2498 -0.31791,2.39629 -0.88337,3.43946 -0.56552,1.04315 -1.3704,2.01545 -2.41464,2.91691 -1.04429,0.90144 -2.25447,1.64737 -3.63053,2.2378 -3.26671,1.40158 -6.13807,1.67717 -8.61408,0.82676 -2.47603,-0.85044 -4.19921,-2.40643 -5.16954,-4.66798 -0.96521,-2.2496 -0.78315,-4.4176 0.54616,-6.504 z m 9.65906,-4.18679 c -2.28551,0.98061 -3.80332,2.00022 -4.55344,3.05885 -1.22688,1.73073 -1.46809,3.46363 -0.72365,5.1987 0.60581,1.41196 1.74274,2.36937 3.41078,2.87221 1.66803,0.50282 3.71659,0.23312 6.14569,-0.80908 2.48889,-1.06789 4.11388,-2.34956 4.87497,-3.84502 0.76104,-1.49546 0.84124,-2.9432 0.24057,-4.34321 -0.60584,-1.41198 -1.74276,-2.36939 -3.41078,-2.87221 -1.66806,-0.50283 -3.66277,-0.25624 -5.98414,0.73976 z"
           style="fill:#ffffff"
           id="path3042" />
        <path
           d="m 439.28313,428.32351 2.63035,-1.53776 c -2.83823,-0.21098 -4.95722,-1.51362 -6.35697,-3.9079 -0.61773,-1.05664 -0.99206,-2.16131 -1.12297,-3.31401 -0.13092,-1.15271 -0.0199,-2.13014 0.33319,-2.93231 0.35304,-0.80216 0.921,-1.55275 1.70389,-2.25176 0.52347,-0.47194 1.43155,-1.08578 2.72425,-1.84152 l 11.09469,-6.48619 1.77433,3.03502 -9.93126,5.80603 c -1.58496,0.92659 -2.6167,1.61272 -3.0952,2.05838 -0.68639,0.65768 -1.07648,1.42871 -1.17029,2.31311 -0.0938,0.88439 0.12542,1.78184 0.65773,2.69236 0.53229,0.91049 1.26498,1.62843 2.19807,2.15382 0.93307,0.52536 1.8984,0.71892 2.89599,0.58066 0.99757,-0.13827 2.26073,-0.65428 3.7895,-1.54801 l 9.59403,-5.60887 1.77434,3.03502 -17.90662,10.46858 z"
           style="fill:#ffffff"
           id="path3044" />
        <path
           d="m 451.40562,439.58367 -2.13421,2.31235 c -0.77351,-0.65146 -1.40079,-1.28496 -1.88185,-1.90053 -0.78574,-1.00544 -1.23606,-1.90944 -1.35096,-2.712 -0.11492,-0.80257 -0.002,-1.51915 0.34021,-2.14975 0.34171,-0.63061 1.34359,-1.59535 3.00565,-2.89421 l 9.40288,-7.34823 -1.58751,-2.0314 2.15451,-1.68371 1.5875,2.03139 4.0474,-3.16299 3.8148,1.45582 -5.70944,4.46186 2.17681,2.78547 -2.15451,1.68372 -2.17681,-2.78547 -9.55677,7.46849 c -0.79,0.61736 -1.25976,1.06297 -1.40929,1.33683 -0.14955,0.27385 -0.20482,0.57318 -0.16581,0.898 0.039,0.32481 0.21886,0.6924 0.53957,1.10279 0.24053,0.30778 0.59314,0.68497 1.05783,1.13157 z"
           style="fill:#ffffff"
           id="path3046" />
        <path
           d="m 469.00183,426.98204 2.91317,-2.80339 2.43774,2.53319 -2.91318,2.80339 z m -17.71827,17.05061 14.94583,-14.38264 2.43774,2.53319 -14.94584,14.38264 z"
           style="fill:#ffffff"
           id="path3048" />
        <path
           d="m 462.24848,441.37709 c 2.20871,-3.14259 4.7182,-4.85629 7.52847,-5.14112 2.34292,-0.23128 4.56369,0.39056 6.66233,1.86553 2.33296,1.6397 3.70262,3.74425 4.10898,6.31366 0.40631,2.56941 -0.33765,5.2017 -2.23189,7.89688 -1.53489,2.18384 -3.06978,3.67138 -4.60466,4.46264 -1.53491,0.79124 -3.17155,1.09322 -4.90992,0.90592 -1.73839,-0.18732 -3.34795,-0.80133 -4.8287,-1.84205 -2.3756,-1.66965 -3.76044,-3.78089 -4.15454,-6.33374 -0.39411,-2.55285 0.41587,-5.26209 2.42993,-8.12772 z m 2.95618,2.0777 c -1.5274,2.17319 -2.19702,4.1336 -2.00885,5.88122 0.18815,1.74763 1.00129,3.12683 2.43944,4.1376 1.42748,1.00328 2.99712,1.29481 4.70893,0.87458 1.71179,-0.42024 3.3501,-1.74358 4.91494,-3.97003 1.47496,-2.09862 2.1157,-4.02361 1.92224,-5.77499 -0.1935,-1.75136 -0.99866,-3.12495 -2.41547,-4.12075 -1.43816,-1.01076 -3.00938,-1.31136 -4.71368,-0.90179 -1.70433,0.40959 -3.32018,1.70098 -4.84755,3.87416 z"
           style="fill:#ffffff"
           id="path3050" />
        <path
           d="m 476.06459,462.79058 6.44854,-19.71432 3.00727,0.98367 -0.91689,2.80307 c 2.15634,-1.69209 4.60202,-2.09083 7.33705,-1.19623 1.18803,0.38863 2.21035,0.95935 3.06695,1.71216 0.85655,0.75284 1.41901,1.55672 1.68737,2.41167 0.26831,0.85496 0.34563,1.79129 0.23196,2.80896 -0.0787,0.65927 -0.37099,1.76238 -0.87698,3.30932 l -3.96506,12.1219 -3.34141,-1.09297 3.92256,-11.99196 c 0.44526,-1.36131 0.64827,-2.4217 0.60902,-3.18119 -0.0393,-0.75947 -0.32419,-1.4486 -0.8547,-2.06739 -0.53055,-0.61876 -1.24134,-1.07388 -2.13237,-1.36535 -1.42321,-0.46551 -2.79924,-0.41557 -4.12809,0.14982 -1.32888,0.56542 -2.40622,2.11044 -3.23201,4.63505 l -3.5218,10.76677 z"
           style="fill:#ffffff"
           id="path3052" />
      </g>
    </g>
  </g>
</svg>
